<?xml version="1.0" encoding="UTF-8" standalone="no"?>
<svg
   width="16"
   height="16"
   fill="#fff"
   class="bi bi-github"
   viewBox="0 0 16 16"
   version="1.1"
   id="svg64"
   sodipodi:docname="github.svg"
   inkscape:version="1.1.1 (3bf5ae0d25, 2021-09-20, custom)"
   xmlns:inkscape="http://www.inkscape.org/namespaces/inkscape"
   xmlns:sodipodi="http://sodipodi.sourceforge.net/DTD/sodipodi-0.dtd"
   xmlns="http://www.w3.org/2000/svg"
   xmlns:svg="http://www.w3.org/2000/svg">
  <defs
     id="defs68" />
  <sodipodi:namedview
     id="namedview66"
     pagecolor="#505050"
     bordercolor="#eeeeee"
     borderopacity="1"
     inkscape:pageshadow="0"
     inkscape:pageopacity="0"
     inkscape:pagecheckerboard="0"
     showgrid="false"
     inkscape:zoom="45.254834"
     inkscape:cx="6.0325047"
     inkscape:cy="5.8336309"
     inkscape:window-width="1898"
     inkscape:window-height="1023"
     inkscape:window-x="8"
     inkscape:window-y="43"
     inkscape:window-maximized="1"
     inkscape:current-layer="svg64" />
  <g
     inkscape:groupmode="layer"
     id="layer1"
     inkscape:label="Layer 1">
    <rect
       style="fill:#000000"
       id="rect42"
       width="11.797011"
       height="14.356858"
       x="1.3881016"
       y="1.6478758" />
  </g>
  <path
     d="M8 0C3.58 0 0 3.58 0 8c0 3.54 2.29 6.53 5.47 7.59.4.07.55-.17.55-.38 0-.19-.01-.82-.01-1.49-2.01.37-2.53-.49-2.69-.94-.09-.23-.48-.94-.82-1.13-.28-.15-.68-.52-.01-.53.63-.01 1.08.58 1.23.82.72 1.21 1.87.87 2.33.66.07-.52.28-.87.51-1.07-1.78-.2-3.64-.89-3.64-3.95 0-.87.31-1.59.82-2.15-.08-.2-.36-1.02.08-2.12 0 0 .67-.21 2.2.82.64-.18 1.32-.27 2-.27.68 0 1.36.09 2 .27 1.53-1.04 2.2-.82 2.2-.82.44 1.1.16 1.92.08 2.12.51.56.82 1.27.82 2.15 0 3.07-1.87 3.75-3.65 3.95.29.25.54.73.54 1.48 0 1.07-.01 1.93-.01 2.2 0 .21.15.46.55.38A8.012 8.012 0 0 0 16 8c0-4.42-3.58-8-8-8z"
     id="path62"
     style="fill:#e6e6e6" />
  <path
     style="fill:#ffffff;stroke-width:0.0193784"
     d="M 5.5237811,15.586225 C 5.3511109,15.558344 4.8362412,15.345635 4.3924312,15.118827 2.6598344,14.233388 1.3047316,12.739433 0.59548387,10.932821 0.3373134,10.275203 0.18336959,9.651303 0.08594571,8.867776 0.03886932,8.4891663 0.03912081,7.5258354 0.08639687,7.1396206 0.28035565,5.5551033 0.83341914,4.2151983 1.7935535,3.0036983 2.059391,2.6682637 2.6828383,2.0421307 3.0193397,1.7726314 4.2172068,0.81327603 5.553694,0.2571143 7.138614,0.05844898 7.5156997,0.01118233 8.4751529,0.01143484 8.8598131,0.05890196 c 1.5783759,0.19477191 2.9172599,0.751829 4.1192739,1.71386784 0.334922,0.2680574 0.958526,0.8941108 1.226111,1.2309285 0.955908,1.2032291 1.509538,2.5444295 1.707255,4.1359223 0.04664,0.3754655 0.04631,1.3190387 -6.11e-4,1.7184466 -0.113367,0.9650062 -0.35856,1.8131588 -0.76379,2.6420338 -0.197327,0.40362 -0.294141,0.573448 -0.536152,0.94049 -0.466532,0.707558 -1.129211,1.416771 -1.801364,1.927855 -0.634466,0.482428 -1.302302,0.85131 -2.07142,1.144156 -0.341597,0.130065 -0.539257,0.106409 -0.670596,-0.08026 l -0.05802,-0.08246 -0.0035,-1.177948 c -0.0041,-1.374152 -0.010996,-1.568536 -0.063973,-1.78694 -0.075654,-0.311916 -0.2323193,-0.625363 -0.3837394,-0.767765 -0.068315,-0.06425 -0.06393,-0.08926 0.015648,-0.08926 0.087525,0 0.5977061,-0.0907 0.8266011,-0.146959 0.465644,-0.114441 0.959982,-0.321257 1.276618,-0.534099 0.766045,-0.514933 1.205082,-1.2749083 1.368913,-2.3695976 0.04799,-0.3206056 0.07227,-0.8915856 0.04924,-1.1578223 -0.0584,-0.6755491 -0.26078,-1.2047808 -0.653662,-1.709413 l -0.140701,-0.1807206 0.04716,-0.1691402 c 0.02593,-0.093027 0.05815,-0.2346743 0.0716,-0.3147714 0.0312,-0.1858602 0.03111,-0.6625715 -1.73e-4,-0.8640777 C 12.39126,3.89275 12.300455,3.5344303 12.248307,3.4017566 l -0.03817,-0.097087 -0.188694,-0.00559 C 11.703331,3.2896596 11.359326,3.3837086 10.890521,3.60828 10.662807,3.7173611 10.15016,4.0129287 10.056248,4.0892805 10.014866,4.1229235 10.007426,4.1225365 9.8378979,4.0779365 9.6031338,4.0161725 9.2050835,3.9429641 8.8820858,3.9021449 8.6817368,3.8768257 8.4711633,3.868863 8.0088807,3.8691257 7.2456506,3.8695587 6.9261487,3.907809 6.113575,4.0960261 L 6.026495,4.1161961 5.794476,3.9702469 C 5.328988,3.6774366 4.8863207,3.4697665 4.4927246,3.3595515 4.3375404,3.3160967 4.2644505,3.306889 4.0667135,3.3058832 l -0.2386883,-0.00121 -0.037413,0.097087 c -0.054621,0.1417373 -0.1464583,0.5005268 -0.173957,0.6796084 -0.056209,0.3660538 -0.02112,0.8810829 0.082983,1.218005 L 3.74,5.43 3.6340368,5.5615096 C 3.1026566,6.2209991 2.891489,6.9401711 2.9420623,7.918162 c 0.037095,0.7173373 0.1677334,1.288394 0.4042933,1.7672734 0.4948978,1.0018456 1.3806463,1.5671136 2.8252901,1.8030466 0.1329578,0.02171 0.2656738,0.03948 0.2949245,0.03948 0.029251,2e-6 0.053183,0.0043 0.053183,0.0096 0,0.0053 -0.043331,0.0636 -0.096291,0.12959 -0.1700869,0.211929 -0.3253596,0.569424 -0.359476,0.827647 -0.014334,0.108492 -0.017674,0.111079 -0.2443919,0.189353 -0.2332525,0.08053 -0.4343988,0.113392 -0.6826019,0.111522 -0.2699473,-0.002 -0.4532416,-0.04303 -0.6601694,-0.14766 C 4.1886474,12.502324 4.0005934,12.322348 3.7643524,11.966167 3.5164839,11.592455 3.2686912,11.355553 2.9903283,11.226159 2.8027875,11.138983 2.671319,11.113776 2.456543,11.123812 c -0.2661202,0.01244 -0.3558838,0.0717 -0.3068161,0.202564 0.031606,0.08429 0.1460517,0.194991 0.3184398,0.308011 0.1929067,0.126472 0.3744395,0.318313 0.5359141,0.566347 0.1580505,0.242773 0.2432285,0.39925 0.3356897,0.616681 0.2438738,0.573491 0.6559015,0.872341 1.3427479,0.973917 0.2619214,0.03873 0.7985886,0.02921 1.102341,-0.01957 0.1010479,-0.01623 0.194965,-0.02966 0.2087047,-0.02985 0.020108,-2.8e-4 0.02388,0.156193 0.019339,0.802073 l -0.00564,0.802421 -0.051907,0.07872 C 5.873324,15.549537 5.699175,15.614544 5.5237827,15.586224 Z"
     id="path372" />
  <rect
     style="fill:#ffffff"
     id="rect1251"
     width="16.004219"
     height="3.1294556"
     x="-0.0046841078"
     y="0.016475344" />
  <rect
     style="fill:#ffffff;stroke-width:1.00363"
     id="rect1253"
     width="2.5131125"
     height="5.6037655"
     x="0.00098964712"
     y="2.2639551"
     ry="0.05798883" />
  <rect
     style="fill:#ffffff;stroke-width:1.01636"
     id="rect1255"
     width="2.8154669"
     height="12.943802"
     x="13.185113"
     y="3.0609331" />
  <rect
     style="fill:#ffffff;stroke-width:1.3089"
     id="rect1267"
     width="3.7075186"
     height="1.9486368"
     x="9.9699373"
     y="14.052108"
     ry="0" />
  <rect
     style="fill:#ffffff;stroke-width:0.961892"
     id="rect1269"
     width="1.9371445"
     height="7.2502904"
     x="0.011772871"
     y="8.7583857" />
  <rect
     style="fill:#ffffff;stroke-width:1.28799"
     id="rect1286"
     width="4.1162763"
     height="2.1737366"
     x="1.8928728"
     y="13.83494" />
  <rect
     style="fill:#ffffff"
     id="rect1294"
     width="1.8024757"
     height="1.5732569"
     x="1.633212"
     y="13.118652" />
  <path
     style="fill:#ffffff;stroke-width:0.0078125"
     d="m 0.015625,11.308594 c 0,-2.2552086 0.0013261,-2.542969 0.01171875,-2.542969 0.0064453,0 0.01171875,-0.00199 0.01171875,-0.00442 0,-0.00243 -0.0055069,-0.071863 -0.01223744,-0.1542968 C 0.00594191,8.3511412 0.00384651,8.0580244 0.00588535,5.6777344 L 0.00786445,3.3671875 H 1.9028962 3.797928 l -0.00537,0.017578 c -0.00295,0.00967 -0.010198,0.029379 -0.016101,0.043802 -0.036469,0.089109 -0.1301043,0.4587012 -0.1586264,0.6261201 -0.063294,0.3715211 -0.029645,0.8847864 0.082566,1.259455 l 0.034419,0.1149238 -0.0972,0.1219777 C 3.4688837,5.7627905 3.3686137,5.9168566 3.2615306,6.1289062 2.9842595,6.677968 2.8885269,7.2760564 2.9491838,8.0802892 c 0.05013,0.6646652 0.1766092,1.170908 0.407398,1.6306483 0.4855098,0.9671545 1.3534294,1.5243285 2.7371682,1.7571665 0.148541,0.02499 0.4195639,0.06315 0.4485816,0.06315 0.00352,0 -0.025411,0.03327 -0.064279,0.07392 -0.2066678,0.216179 -0.361239,0.558836 -0.4230358,0.937797 l -0.00892,0.05469 -0.052346,0.0223 c -0.091486,0.03898 -0.2412098,0.0901 -0.3357391,0.114646 -0.6544065,0.169914 -1.2213954,0.028 -1.6427069,-0.411147 C 3.9189045,12.222972 3.8619635,12.148819 3.7459341,11.972656 3.6181406,11.778633 3.552417,11.69364 3.4419537,11.579553 3.1089787,11.235655 2.7724748,11.088362 2.4018907,11.1243 c -0.1505065,0.01459 -0.2184276,0.03811 -0.2522464,0.08732 -0.015327,0.0223 -0.017659,0.03334 -0.014254,0.06751 0.010468,0.105035 0.1342763,0.234268 0.3541406,0.369654 0.078172,0.04814 0.1094712,0.074 0.2020571,0.166982 0.2298862,0.230864 0.4789402,0.616861 0.6380769,0.988928 0.2169935,0.50734 0.5414171,0.787467 1.0722487,0.925848 0.3298995,0.086 0.7444304,0.104661 1.1996493,0.054 0.093608,-0.01042 0.3269865,-0.04418 0.3847656,-0.05566 l 0.021484,-0.0043 v 0.06348 0.06348 H 3.0117187 0.015625 Z"
     id="path86" />
  <rect
     style="fill:#ffffff"
     id="rect560"
     width="0.14966857"
     height="1.1788166"
     x="0.011772871"
     y="7.5795689" />
  <rect
     style="fill:#ffffff"
     id="rect562"
     width="0.14025019"
     height="1.8306723"
     x="9.9699373"
     y="12.221436" />
  <rect
     style="fill:#ffffff"
     id="rect564"
     width="0.099573061"
     height="0.84476954"
     x="5.90769"
     y="14.501637" />
  <rect
     style="fill:#ffffff"
     id="rect566"
     width="0.001885891"
     height="1.5070391"
     x="6.0072632"
     y="14.501637" />
</svg>
