<svg xmlns="http://www.w3.org/2000/svg" xmlns:xlink="http://www.w3.org/1999/xlink" id="Layer_1" x="0" y="0" version="1.1" viewBox="0 0 512 512" xml:space="preserve" style="enable-background:new 0 0 512 512"><circle style="fill:#81a1c1" cx="256" cy="256" r="256"/><path style="fill:#81a1c1" d="M308.445,506.613c99.231-20.661,177.386-98.766,198.125-197.968L374.555,176.338L226.187,277.33	l17.613,17.613l-106.632,40.431L308.445,506.613z"/><linearGradient id="SVGID_1_" x1="55.498" x2="165.198" y1="423.87" y2="423.87" gradientTransform="matrix(1.7239 0 0 -1.7239 35.4714 986.7104)" gradientUnits="userSpaceOnUse"><stop offset="0" style="stop-color:#d8dee9"/><stop offset="1" style="stop-color:#d8dee9"/></linearGradient><path style="fill:url(#SVGID_1_)" d="M358.538,169.52H153.46c-12.278,0-22.316,10.049-22.316,22.319v128.326	c0,12.262,10.037,22.313,22.316,22.313h205.078c12.278,0,22.318-10.05,22.318-22.313V191.84	C380.856,179.571,370.816,169.52,358.538,169.52z"/><g><polygon style="fill:#d8dee9" points="255.073 289.797 162.109 340.137 162.261 342.48 256.157 291.868"/><path style="fill:#d8dee9" d="M360.431,190.857l-59.566,45.87l-44.709,55.143l90.905,50.612h11.476 c8.242,0,15.46-4.534,19.328-11.23l-7.697-51.131L360.431,190.857z"/></g><path style="fill:#3b4252" d="M256.157,291.868l124.699-96.547v-3.481c0-12.271-10.038-22.319-22.318-22.319h-4.965l-94.441,80.618	l-98.256-80.618h-7.416c-12.278,0-22.316,10.049-22.316,22.319v128.326c0,12.262,10.037,22.313,22.316,22.313h8.801V217.347	L256.157,291.868z"/><path style="fill:#3b4252" d="M380.856,320.165V195.32l-33.794,26.164v120.994h11.476	C370.816,342.48,380.856,332.429,380.856,320.165z"/></svg>